<svg id="组_1" data-name="组 1" xmlns="http://www.w3.org/2000/svg" width="75.844" height="72" viewBox="0 0 75.844 72">
  <metadata><?xpacket begin="﻿" id="W5M0MpCehiHzreSzNTczkc9d"?>
<x:xmpmeta xmlns:x="adobe:ns:meta/" x:xmptk="Adobe XMP Core 5.6-c142 79.160924, 2017/07/13-01:06:39        ">
   <rdf:RDF xmlns:rdf="http://www.w3.org/1999/02/22-rdf-syntax-ns#">
      <rdf:Description rdf:about=""/>
   </rdf:RDF>
</x:xmpmeta>
                                                                                                    
                                                                                                    
                                                                                                    
                                                                                                    
                                                                                                    
                                                                                                    
                                                                                                    
                                                                                                    
                                                                                                    
                                                                                                    
                                                                                                    
                                                                                                    
                                                                                                    
                                                                                                    
                                                                                                    
                                                                                                    
                                                                                                    
                                                                                                    
                                                                                                    
                                                                                                    
                           
<?xpacket end="w"?></metadata>
<defs>
    <style>
      .cls-1, .cls-2 {
        fill: #fff;
      }

      .cls-1 {
        fill-rule: evenodd;
      }
    </style>
  </defs>
  <path id="Deep_Vocal" data-name="Deep Vocal" class="cls-1" d="M19.566,17.679h4.728c5.281,0,8.377-3.168,8.377-8.9,0-5.76-3.1-8.761-8.521-8.761H19.566V17.679Zm2.784-2.28V2.27h1.608c3.792,0,5.833,2.088,5.833,6.5,0,4.392-2.04,6.625-5.832,6.625H22.351Zm13.991,2.28h10.7V15.327H39.126V9.615h6.48V7.263h-6.48V2.342h7.657V0.014H36.342V17.679Zm14.4,0h10.7V15.327H53.526V9.615h6.48V7.263h-6.48V2.342h7.657V0.014H50.742V17.679Zm14.4,0h2.784v-6.7H70.59c3.84,0,6.649-1.776,6.649-5.64,0-3.984-2.808-5.328-6.745-5.328H65.142V17.679Zm2.784-8.929v-6.5h2.3c2.808,0,4.272.768,4.272,3.1s-1.344,3.408-4.176,3.408h-2.4ZM7.686,47.679h3.288L16.5,30.014H13.663l-2.616,9.145c-0.576,2.016-1.008,3.744-1.608,5.784H9.318C8.694,42.9,8.31,41.175,7.71,39.159L5.094,30.014H2.142Zm17.808,0.312c4.536,0,7.7-3.528,7.7-9.217s-3.168-9.1-7.7-9.1-7.681,3.408-7.681,9.1S20.958,47.992,25.494,47.992Zm0-2.424c-2.928,0-4.824-2.64-4.824-6.792s1.9-6.673,4.824-6.673,4.848,2.52,4.848,6.673S28.423,45.567,25.494,45.567Zm18.264,2.424a6.976,6.976,0,0,0,5.5-2.544L47.767,43.7a5.148,5.148,0,0,1-3.912,1.872c-3.12,0-5.088-2.568-5.088-6.769,0-4.152,2.112-6.7,5.16-6.7a4.7,4.7,0,0,1,3.456,1.584l1.512-1.776a6.808,6.808,0,0,0-5.016-2.232c-4.464,0-7.969,3.456-7.969,9.217C35.91,44.679,39.318,47.992,43.758,47.992Zm11.28-7.537,0.72-2.376c0.576-1.92,1.128-3.864,1.632-5.881h0.1c0.552,1.992,1.08,3.96,1.68,5.881l0.7,2.376H55.038Zm6.985,7.225h2.952L59.118,30.014H55.9L50.046,47.679h2.832l1.512-5.04h6.145Zm5.279,0H77.55V45.327H70.086V30.014H67.3V47.679Z" transform="translate(-2.156)"/>
  <rect id="矩形_2" data-name="矩形 2" class="cls-2" x="35.844" y="70" width="40" height="2"/>
</svg>
