<svg id="组_1" data-name="组 1" xmlns="http://www.w3.org/2000/svg" width="207.438" height="45.406" viewBox="0 0 207.438 45.406">
  <metadata><?xpacket begin="﻿" id="W5M0MpCehiHzreSzNTczkc9d"?>
<x:xmpmeta xmlns:x="adobe:ns:meta/" x:xmptk="Adobe XMP Core 5.6-c142 79.160924, 2017/07/13-01:06:39        ">
   <rdf:RDF xmlns:rdf="http://www.w3.org/1999/02/22-rdf-syntax-ns#">
      <rdf:Description rdf:about=""/>
   </rdf:RDF>
</x:xmpmeta>
                                                                                                    
                                                                                                    
                                                                                                    
                                                                                                    
                                                                                                    
                                                                                                    
                                                                                                    
                                                                                                    
                                                                                                    
                                                                                                    
                                                                                                    
                                                                                                    
                                                                                                    
                                                                                                    
                                                                                                    
                                                                                                    
                                                                                                    
                                                                                                    
                                                                                                    
                                                                                                    
                           
<?xpacket end="w"?></metadata>
<defs>
    <style>
      .cls-1 {
        fill: #0084ff;
      }

      .cls-1, .cls-2, .cls-3 {
        fill-rule: evenodd;
      }

      .cls-2 {
        fill: #ff0090;
      }

      .cls-3 {
        fill: #fff;
      }
    </style>
  </defs>
  <path id="为你发声" class="cls-1" d="M43.039,9.217v1.331H22.2V0.827H18.012v9.721H13.876L16.1,8,9.581,1.29l-2.863,3.3,5.833,5.96H5.18v4.571H18.012v2.314a25.4,25.4,0,0,1-7,18.226,27.089,27.089,0,0,1-2.625,2.43,26.207,26.207,0,0,1-2.307,1.678Q5.074,40.4,3.8,41.1L5.34,45.322a6.477,6.477,0,0,1,.8-0.434q0.742-.377,1.935-1.128t2.678-1.909a27.837,27.837,0,0,0,3.022-2.777,35.232,35.232,0,0,0,2.943-3.587,27.322,27.322,0,0,0,2.731-4.774,32.227,32.227,0,0,0,1.988-5.989,32.169,32.169,0,0,0,.769-7.291V15.119H43.039V40.4a0.541,0.541,0,0,1-.583.636H33.442v4.571h9.014a4.45,4.45,0,0,0,3.367-1.5,5.225,5.225,0,0,0,1.405-3.7V9.217H43.039ZM39.169,31.725L28.352,20.095l-2.916,3.24,10.817,11.63Zm26.3-31.361q0,0.058-.769,1.389T62.526,5.08q-1.405,2-3.34,4.282a32.818,32.818,0,0,1-4.268,4.195L57.462,17.2a35.216,35.216,0,0,0,3.288-3.124v31.65h4.189V9.1a42.241,42.241,0,0,0,2.969-4.426q1.06-1.88,1.166-2Zm9.438,20.02a69.872,69.872,0,0,1-2.227,7.348q-1.273,3.472-2.466,6.075t-2.89,5.67l3.5,2.488q0.052-.174.981-1.823t2.174-4.4q1.245-2.748,2.6-6.423a71.106,71.106,0,0,0,2.36-7.84h0ZM91.98,21.715l7.211,21,3.871-1.562-7.211-21Zm-8.219,18.8a0.541,0.541,0,0,1-.583.637H76.656v4.571h6.522a4.425,4.425,0,0,0,3.394-1.5,5.281,5.281,0,0,0,1.379-3.7V13.383H83.761V40.519ZM97.07,10.605L94.949,15.7l3.818,1.851,3.5-8.409V6.034H77.24q0.688-1.5,1.06-2.459T78.724,2.5L74.8,0.827q0,0.058-.5,1.36T72.786,5.524q-1.008,2.034-2.492,4.542a38.25,38.25,0,0,1-3.447,4.879l3.128,3.009a39.521,39.521,0,0,0,2.757-3.732q1.219-1.88,2.174-3.616H97.07Zm50.85-.347,2.863-3.24-5.726-6.075-2.917,3.3ZM121.647,30.423a60.14,60.14,0,0,0,2.637-6.336H147v0.637q-0.9.985-3.42,3.24a52.335,52.335,0,0,1-6.813,4.976l-10.181-4.976-1.706,4.166,7.168,3.472q-2.917,1.562-6.378,3.009a65.745,65.745,0,0,1-7.6,2.6l1.113,4.4a71.614,71.614,0,0,0,9.886-3.558q4.407-2,7.907-4.021l15.7,7.638,1.7-4.108L141.428,35.2q2.279-1.562,3.977-2.98t2.836-2.488a22.254,22.254,0,0,0,1.724-1.765q0.582-.694.689-0.81l0.53-.637V18.532H147v0.984H125.68q0.268-.983.537-2.054t0.484-2.17h27.9V10.721H127.345c0.035-.268.061-0.517,0.08-0.747s0.044-.479.081-0.749V1.579h-4.189V8.938c-0.036.307-.062,0.6-0.08,0.891a5.571,5.571,0,0,1-.132.891l-7.264.058,3.764-6.6-3.5-2.43-5.78,9.952v3.587h12.037a51.777,51.777,0,0,1-2.174,7.58q-1.326,3.53-2.811,6.538a53.153,53.153,0,0,1-3.022,5.381q-1.539,2.373-2.757,4.05t-2.81,3.472l2.863,3.24,0.689-.752q0.636-.694,1.644-1.967t2.306-3.124q1.3-1.852,2.678-4.224h0Q120.241,33.287,121.647,30.423ZM162.926,8.58H183.5v3.067H166.478v4.571h38.23V11.647h-17.02V8.58h20.573V4.009H187.688V0.943H183.5V4.009H162.926V8.58Zm36.321,26.153a4.42,4.42,0,0,0,3.393-1.5,5.277,5.277,0,0,0,1.379-3.7V17.838H199.83V18.59H166.9V29.526a12.192,12.192,0,0,1-.424,3.153,19.036,19.036,0,0,1-1.087,3.038,28.093,28.093,0,0,1-1.405,2.691q-0.742,1.243-1.405,2.17T161.017,42.6l3.022,3.182a11.339,11.339,0,0,1,.8-1.013,29.266,29.266,0,0,0,1.724-2.372,35.7,35.7,0,0,0,1.988-3.443,25.855,25.855,0,0,0,1.7-4.224h29Zm0.583-5.207a0.54,0.54,0,0,1-.583.636H187.9v-7h11.93v6.365Zm-28.739-6.365h12.62v7h-12.62v-7Z" transform="translate(-0.813 -0.375)"/>
  <path id="为你发声-2" data-name="为你发声" class="cls-2" d="M40.039,9.217v1.331H19.2V0.827H15.012v9.721H10.876L13.1,8,6.581,1.29l-2.863,3.3,5.833,5.96H2.18v4.571H15.012v2.314a25.4,25.4,0,0,1-7,18.226,27.088,27.088,0,0,1-2.625,2.43,26.207,26.207,0,0,1-2.307,1.678Q2.074,40.4.8,41.1L2.34,45.322a6.477,6.477,0,0,1,.8-0.434q0.742-.377,1.935-1.128T7.748,41.85a27.834,27.834,0,0,0,3.022-2.777,35.232,35.232,0,0,0,2.943-3.587,27.322,27.322,0,0,0,2.731-4.774,32.227,32.227,0,0,0,1.988-5.989,32.169,32.169,0,0,0,.769-7.291V15.119H40.039V40.4a0.541,0.541,0,0,1-.583.636H30.442v4.571h9.014a4.45,4.45,0,0,0,3.367-1.5,5.225,5.225,0,0,0,1.405-3.7V9.217H40.039ZM36.169,31.725L25.352,20.095l-2.916,3.24,10.817,11.63Zm26.3-31.361q0,0.058-.769,1.389T59.526,5.08q-1.405,2-3.34,4.282a32.818,32.818,0,0,1-4.268,4.195L54.462,17.2a35.216,35.216,0,0,0,3.288-3.124v31.65h4.189V9.1a42.241,42.241,0,0,0,2.969-4.426q1.06-1.88,1.166-2Zm9.438,20.02a69.872,69.872,0,0,1-2.227,7.348q-1.273,3.472-2.466,6.075t-2.89,5.67l3.5,2.488q0.052-.174.981-1.823t2.174-4.4q1.245-2.748,2.6-6.423a71.106,71.106,0,0,0,2.36-7.84h0ZM88.98,21.715l7.211,21,3.871-1.562-7.211-21Zm-8.219,18.8a0.541,0.541,0,0,1-.583.637H73.656v4.571h6.522a4.425,4.425,0,0,0,3.394-1.5,5.281,5.281,0,0,0,1.379-3.7V13.383H80.761V40.519ZM94.07,10.605L91.949,15.7l3.818,1.851,3.5-8.409V6.034H74.24q0.688-1.5,1.06-2.459T75.724,2.5L71.8,0.827q0,0.058-.5,1.36T69.786,5.524q-1.008,2.034-2.492,4.542a38.25,38.25,0,0,1-3.447,4.879l3.128,3.009a39.521,39.521,0,0,0,2.757-3.732q1.219-1.88,2.174-3.616H94.07Zm50.85-.347,2.863-3.24-5.726-6.075-2.917,3.3ZM118.647,30.423a60.14,60.14,0,0,0,2.637-6.336H144v0.637q-0.9.985-3.42,3.24a52.335,52.335,0,0,1-6.813,4.976l-10.181-4.976-1.706,4.166,7.168,3.472q-2.918,1.562-6.378,3.009a65.745,65.745,0,0,1-7.6,2.6l1.113,4.4a71.614,71.614,0,0,0,9.886-3.558q4.407-2,7.907-4.021l15.7,7.638,1.7-4.108L138.428,35.2q2.279-1.562,3.977-2.98t2.836-2.488a22.254,22.254,0,0,0,1.724-1.765q0.582-.694.689-0.81l0.53-.637V18.532H144v0.984H122.68q0.268-.983.537-2.054t0.484-2.17h27.9V10.721H124.345c0.035-.268.061-0.517,0.08-0.747s0.044-.479.081-0.749V1.579h-4.189V8.938c-0.036.307-.062,0.6-0.08,0.891a5.571,5.571,0,0,1-.132.891l-7.264.058,3.764-6.6-3.5-2.43-5.78,9.952v3.587h12.037a51.777,51.777,0,0,1-2.174,7.58q-1.326,3.53-2.811,6.538a53.153,53.153,0,0,1-3.022,5.381q-1.539,2.373-2.757,4.05t-2.81,3.472l2.863,3.24,0.689-.752q0.636-.694,1.644-1.967t2.306-3.124q1.3-1.852,2.678-4.224h0Q117.241,33.287,118.647,30.423ZM159.926,8.58H180.5v3.067H163.478v4.571h38.23V11.647h-17.02V8.58h20.573V4.009H184.688V0.943H180.5V4.009H159.926V8.58Zm36.321,26.153a4.42,4.42,0,0,0,3.393-1.5,5.277,5.277,0,0,0,1.379-3.7V17.838H196.83V18.59H163.9V29.526a12.192,12.192,0,0,1-.424,3.153,19.036,19.036,0,0,1-1.087,3.038,28.093,28.093,0,0,1-1.405,2.691q-0.742,1.243-1.405,2.17T158.017,42.6l3.022,3.182a11.339,11.339,0,0,1,.8-1.013,29.266,29.266,0,0,0,1.724-2.372,35.7,35.7,0,0,0,1.988-3.443,25.855,25.855,0,0,0,1.7-4.224h29Zm0.583-5.207a0.54,0.54,0,0,1-.583.636H184.9v-7h11.93v6.365Zm-28.739-6.365h12.62v7h-12.62v-7Z" transform="translate(-0.813 -0.375)"/>
  <path id="为你发声-3" data-name="为你发声" class="cls-3" d="M41.039,9.217v1.331H20.2V0.827H16.012v9.721H11.876L14.1,8,7.581,1.29l-2.863,3.3,5.833,5.96H3.18v4.571H16.012v2.314a25.4,25.4,0,0,1-7,18.226,27.088,27.088,0,0,1-2.625,2.43,26.207,26.207,0,0,1-2.307,1.678Q3.074,40.4,1.8,41.1L3.34,45.322a6.477,6.477,0,0,1,.8-0.434q0.742-.377,1.935-1.128T8.748,41.85a27.836,27.836,0,0,0,3.022-2.777,35.232,35.232,0,0,0,2.943-3.587,27.322,27.322,0,0,0,2.731-4.774,32.227,32.227,0,0,0,1.988-5.989,32.169,32.169,0,0,0,.769-7.291V15.119H41.039V40.4a0.541,0.541,0,0,1-.583.636H31.442v4.571h9.014a4.45,4.45,0,0,0,3.367-1.5,5.225,5.225,0,0,0,1.405-3.7V9.217H41.039ZM37.169,31.725L26.352,20.095l-2.916,3.24,10.817,11.63Zm26.3-31.361q0,0.058-.769,1.389T60.526,5.08q-1.405,2-3.34,4.282a32.818,32.818,0,0,1-4.268,4.195L55.462,17.2a35.216,35.216,0,0,0,3.288-3.124v31.65h4.189V9.1a42.241,42.241,0,0,0,2.969-4.426q1.06-1.88,1.166-2Zm9.438,20.02a69.872,69.872,0,0,1-2.227,7.348q-1.273,3.472-2.466,6.075t-2.89,5.67l3.5,2.488q0.052-.174.981-1.823t2.174-4.4q1.245-2.748,2.6-6.423a71.106,71.106,0,0,0,2.36-7.84h0ZM89.98,21.715l7.211,21,3.871-1.562-7.211-21Zm-8.219,18.8a0.541,0.541,0,0,1-.583.637H74.656v4.571h6.522a4.425,4.425,0,0,0,3.394-1.5,5.281,5.281,0,0,0,1.379-3.7V13.383H81.761V40.519ZM95.07,10.605L92.949,15.7l3.818,1.851,3.5-8.409V6.034H75.24q0.688-1.5,1.06-2.459T76.724,2.5L72.8,0.827q0,0.058-.5,1.36T70.786,5.524q-1.008,2.034-2.492,4.542a38.25,38.25,0,0,1-3.447,4.879l3.128,3.009a39.521,39.521,0,0,0,2.757-3.732q1.219-1.88,2.174-3.616H95.07Zm50.85-.347,2.863-3.24-5.726-6.075-2.917,3.3ZM119.647,30.423a60.14,60.14,0,0,0,2.637-6.336H145v0.637q-0.9.985-3.42,3.24a52.335,52.335,0,0,1-6.813,4.976l-10.181-4.976-1.706,4.166,7.168,3.472q-2.917,1.562-6.378,3.009a65.745,65.745,0,0,1-7.6,2.6l1.113,4.4a71.614,71.614,0,0,0,9.886-3.558q4.407-2,7.907-4.021l15.7,7.638,1.7-4.108L139.428,35.2q2.279-1.562,3.977-2.98t2.836-2.488a22.254,22.254,0,0,0,1.724-1.765q0.582-.694.689-0.81l0.53-.637V18.532H145v0.984H123.68q0.268-.983.537-2.054t0.484-2.17h27.9V10.721H125.345c0.035-.268.061-0.517,0.08-0.747s0.044-.479.081-0.749V1.579h-4.189V8.938c-0.036.307-.062,0.6-0.08,0.891a5.571,5.571,0,0,1-.132.891l-7.264.058,3.764-6.6-3.5-2.43-5.78,9.952v3.587h12.037a51.777,51.777,0,0,1-2.174,7.58q-1.326,3.53-2.811,6.538a53.153,53.153,0,0,1-3.022,5.381q-1.539,2.373-2.757,4.05t-2.81,3.472l2.863,3.24,0.689-.752q0.636-.694,1.644-1.967t2.306-3.124q1.3-1.852,2.678-4.224h0Q118.241,33.287,119.647,30.423ZM160.926,8.58H181.5v3.067H164.478v4.571h38.23V11.647h-17.02V8.58h20.573V4.009H185.688V0.943H181.5V4.009H160.926V8.58Zm36.321,26.153a4.42,4.42,0,0,0,3.393-1.5,5.277,5.277,0,0,0,1.379-3.7V17.838H197.83V18.59H164.9V29.526a12.192,12.192,0,0,1-.424,3.153,19.036,19.036,0,0,1-1.087,3.038,28.093,28.093,0,0,1-1.405,2.691q-0.742,1.243-1.405,2.17T159.017,42.6l3.022,3.182a11.339,11.339,0,0,1,.8-1.013,29.266,29.266,0,0,0,1.724-2.372,35.7,35.7,0,0,0,1.988-3.443,25.855,25.855,0,0,0,1.7-4.224h29Zm0.583-5.207a0.54,0.54,0,0,1-.583.636H185.9v-7h11.93v6.365Zm-28.739-6.365h12.62v7h-12.62v-7Z" transform="translate(-0.813 -0.375)"/>
</svg>
